HIERARCHY
ROOT Hips
{
	OFFSET	0.00	0.00	0.00
	CHANNELS 6 Xposition Yposition Zposition Zrotation Xrotation Yrotation
	JOINT LeftUpLeg
	{
		OFFSET	 0.126116	-0.014019	-0.065224
		CHANNELS 3 Zrotation Xrotation Yrotation
		JOINT LeftLeg
		{
			OFFSET	 0.000000	 0.000000	 0.569914
			CHANNELS 3 Zrotation Xrotation Yrotation
			JOINT LeftFoot
			{
				OFFSET	 0.000000	 0.000000	 0.544423
				CHANNELS 3 Zrotation Xrotation Yrotation
				JOINT LeftToeBase
				{
					OFFSET	 0.000000	 0.000000	 0.207117
					CHANNELS 3 Zrotation Xrotation Yrotation
					End Site
					{
						OFFSET	 0.000000	 0.000000	 0.207117
					}
				}
			}
		}
	}
	JOINT RightUpLeg
	{
		OFFSET	-0.124023	-0.008373	-0.065224
		CHANNELS 3 Zrotation Xrotation Yrotation
		JOINT RightLeg
		{
			OFFSET	 0.000000	 0.000000	 0.570047
			CHANNELS 3 Zrotation Xrotation Yrotation
			JOINT RightFoot
			{
				OFFSET	 0.000000	 0.000000	 0.544354
				CHANNELS 3 Zrotation Xrotation Yrotation
				JOINT RightToeBase
				{
					OFFSET	 0.000000	 0.000000	 0.207540
					CHANNELS 3 Zrotation Xrotation Yrotation
					End Site
					{
						OFFSET	 0.000000	 0.000000	 0.207540
					}
				}
			}
		}
	}
	JOINT Spine
	{
		OFFSET	 0.000184	-0.007763	 0.117403
		CHANNELS 3 Zrotation Xrotation Yrotation
		JOINT Spine1
		{
			OFFSET	 0.000000	 0.000000	 0.137269
			CHANNELS 3 Zrotation Xrotation Yrotation
			JOINT Spine2
			{
				OFFSET	 0.000000	 0.000000	 0.156879
				CHANNELS 3 Zrotation Xrotation Yrotation
				JOINT LeftShoulder
				{
					OFFSET	 0.080501	-0.002496	 0.160144
					CHANNELS 3 Zrotation Xrotation Yrotation
					JOINT LeftArm
					{
						OFFSET	 0.000000	 0.000000	 0.164363
						CHANNELS 3 Zrotation Xrotation Yrotation
						JOINT LeftForeArm
						{
							OFFSET	 0.000000	 0.000000	 0.364576
							CHANNELS 3 Zrotation Xrotation Yrotation
							JOINT LeftHand
							{
								OFFSET	 0.000000	 0.000000	 0.360812
								CHANNELS 3 Zrotation Xrotation Yrotation
								JOINT LeftHandIndex1
								{
									OFFSET	 0.000000	 0.000000	 0.086006
									CHANNELS 3 Zrotation Xrotation Yrotation
									JOINT LeftHandIndex2
									{
										OFFSET	 0.000000	 0.000000	 0.047237
										CHANNELS 3 Zrotation Xrotation Yrotation
										JOINT LeftHandIndex3
										{
											OFFSET	-0.004284	-0.000551	 0.038165
											CHANNELS 3 Zrotation Xrotation Yrotation
											End Site
											{
												OFFSET	-0.004284	-0.000551	 0.038165
											}
										}
									}
								}
							}
						}
					}
				}
				JOINT Neck
				{
					OFFSET	 0.000000	 0.000000	 0.176489
					CHANNELS 3 Zrotation Xrotation Yrotation
					JOINT Head
					{
						OFFSET	 0.000000	-0.001747	 0.077940
						CHANNELS 3 Zrotation Xrotation Yrotation
						End Site
						{
							OFFSET	 0.000000	-0.001747	 0.077940
						}
					}
				}
				JOINT RightShoulder
				{
					OFFSET	-0.080363	 0.000306	 0.159706
					CHANNELS 3 Zrotation Xrotation Yrotation
					JOINT RightArm
					{
						OFFSET	 0.000000	 0.000000	 0.164196
						CHANNELS 3 Zrotation Xrotation Yrotation
						JOINT RightForeArm
						{
							OFFSET	 0.000000	 0.000000	 0.365611
							CHANNELS 3 Zrotation Xrotation Yrotation
							JOINT RightHand
							{
								OFFSET	 0.000000	 0.000000	 0.360648
								CHANNELS 3 Zrotation Xrotation Yrotation
								JOINT RightHandIndex1
								{
									OFFSET	 0.000000	 0.000000	 0.069977
									CHANNELS 3 Zrotation Xrotation Yrotation
									JOINT RightHandIndex2
									{
										OFFSET	 0.000000	 0.000000	 0.052305
										CHANNELS 3 Zrotation Xrotation Yrotation
										JOINT RightHandIndex3
										{
											OFFSET	 0.009002	-0.000782	 0.042196
											CHANNELS 3 Zrotation Xrotation Yrotation
											End Site
											{
												OFFSET	 0.009002	-0.000782	 0.042196
											}
										}
									}
								}
							}
						}
					}
				}
			}
		}
	}
}
MOTION
Frames:    11
Frame Time: 0.03333334
-0.720955	-0.033998	 1.282790	 169.424200	-11.514400	-0.642974	 9.709990	 4.856865	 176.939000	-2.002864	-30.368230	-1.754105	-43.499490	 73.439280	 34.800130	-2.385833	 28.452760	 0.000004	-34.571410	-3.242683	-163.535200	 9.957932	-30.413190	 5.193231	 12.562170	 73.118970	-15.802890	 2.384659	 28.388700	-0.000001	 47.317680	 10.475530	-12.644120	 2.042676	 8.911701	-4.495797	 12.611580	-2.211343	 9.524807	-91.776240	 78.527400	-180.000000	-2.361131	 42.489160	-77.644520	-41.262600	 0.230370	-1.833789	-40.347140	-19.397390	-22.112060	-4.130354	 21.526190	 0.991307	-5.167926	 0.731697	 3.519349	-1.378229	 35.397820	-2.634230	 14.595550	 5.815771	-2.733971	 9.292951	-13.538770	-2.428025	 89.782200	 78.203870	 179.999900	-50.306190	 2.361719	 91.781400	 9.504250	 1.900698	 142.273000	 26.408330	 21.409260	-2.940979	 5.716295	 19.173350	-3.684826	 5.027458	 0.246833	-9.377971	-2.350882	 35.473990	 5.254307
-0.721213	-0.034381	 1.281927	 168.626900	-11.471670	 0.166415	 8.775326	 4.901135	 176.305700	-1.619290	-30.718580	-1.575941	-45.603540	 73.415080	 36.730140	-2.385833	 28.452760	 0.000004	-35.740060	-3.046685	-164.098000	 10.381490	-30.297770	 5.394509	 11.084070	 73.269700	-14.505660	 2.384659	 28.388700	-0.000001	 49.828650	 9.651450	-15.192860	 3.217822	 9.923143	-6.044692	 12.812540	-4.326333	 12.460600	-91.776260	 78.527380	-179.999900	-0.342559	 45.902450	-35.772750	-22.532520	 22.914080	-80.446420	-41.765170	-20.407530	-23.271620	-4.130354	 21.526190	 0.991307	-5.167926	 0.731697	 3.519349	-1.378229	 35.397820	-2.634230	 15.013550	 5.223646	-4.246840	 8.947788	-15.175460	-4.291185	 89.782140	 78.203870	 180.000000	-52.484970	 0.324050	 91.247990	 11.207900	 0.554567	 140.927800	 18.924420	 23.988700	-1.367079	 5.716295	 19.173350	-3.684826	 5.027458	 0.246833	-9.377971	-2.350882	 35.473990	 5.254307
-0.719778	-0.035037	 1.280743	 168.083500	-11.230370	 0.069634	 7.811801	 4.804931	 176.998100	-1.325241	-30.612870	-1.421035	-45.169950	 73.744130	 35.953740	-2.385833	 28.452760	 0.000004	-36.506660	-3.932575	-163.911700	 10.748210	-30.514810	 5.620404	 10.271700	 73.265380	-13.845190	 2.384659	 28.388700	-0.000001	 51.758760	 8.371903	-15.774680	 4.131400	 11.506930	-5.749880	 12.987240	-6.572425	 12.694790	-91.776190	 78.527400	-180.000000	-10.734800	 41.157710	-42.542760	-27.207110	 21.573100	-67.780610	-43.057770	-21.436730	-24.255590	-4.130354	 21.526190	 0.991307	-5.167926	 0.731697	 3.519349	-1.378229	 35.397820	-2.634230	 15.161830	 5.806058	-4.897758	 8.841947	-17.459200	-4.130794	 89.782150	 78.203870	 180.000000	-52.151640	-1.481364	 90.602040	 13.062780	-1.013552	 139.981400	 12.057200	 25.770070	 0.438835	 5.716295	 19.173350	-3.684826	 5.027458	 0.246833	-9.377971	-2.350882	 35.473990	 5.254307
-0.718095	-0.036015	 1.279749	 167.513400	-10.950330	-0.041697	 6.653337	 4.536320	 178.012400	-0.936210	-30.409590	-1.215283	-43.968150	 74.128970	 34.267760	-2.385833	 28.452760	 0.000004	-37.260740	-5.113628	-163.650300	 11.156440	-30.718940	 5.868609	 9.159204	 72.918920	-12.919710	 2.384659	 28.388700	-0.000001	 53.786400	 6.873662	-16.028230	 5.098827	 13.449940	-4.978337	 13.093090	-8.938540	 12.570770	-91.776220	 78.527360	-179.999900	-23.256710	 34.297430	-79.717320	-41.309170	 0.182390	-0.689302	-44.063190	-22.396630	-24.701730	-4.130354	 21.526190	 0.991307	-5.167926	 0.731697	 3.519349	-1.378229	 35.397820	-2.634230	 15.018110	 5.567865	-5.151232	 8.652356	-18.800030	-4.468288	 89.782100	 78.203870	 180.000000	-50.632760	-2.877790	 90.631880	 15.324590	-3.007247	 139.060500	 4.848766	 27.383580	 2.175075	 5.716295	 19.173350	-3.684826	 5.027458	 0.246833	-9.377971	-2.350882	 35.473990	 5.254307
-0.716618	-0.036414	 1.279267	 166.954700	-10.881160	-0.254671	 5.591389	 4.833516	 178.602700	-0.587678	-29.879520	-1.022227	-44.496810	 73.959680	 34.652170	-2.385833	 28.452760	 0.000004	-38.149360	-5.874875	-163.376300	 11.631680	-31.113300	 6.189056	 8.373765	 73.210690	-12.230560	 2.384659	 28.388700	-0.000001	 56.194570	 5.265667	-15.904760	 6.825186	 14.961150	-5.427902	 12.880290	-10.823970	 12.581760	-91.776120	 78.527380	 179.999900	-29.098570	 33.504490	-82.388130	-40.736640	 0.162740	-0.595740	-44.532670	-23.352020	-24.569820	-4.130354	 21.526190	 0.991307	-5.167926	 0.731697	 3.519349	-1.378229	 35.397820	-2.634230	 14.501060	 5.625711	-4.861011	 8.201065	-20.582600	-5.475293	 89.782160	 78.203870	 179.999900	-47.062720	-3.788420	 92.165020	 17.541400	-5.132154	 138.044100	-1.124890	 28.159700	 1.197053	 5.716295	 19.173350	-3.684826	 5.027458	 0.246833	-9.377971	-2.350882	 35.473990	 5.254307
-0.718575	-0.035463	 1.280506	 166.656000	-10.175420	 0.351311	 4.382691	 4.407216	 178.479300	-0.263990	-29.953940	-0.862778	-44.680290	 74.259460	 34.716110	-2.385833	 28.452760	 0.000004	-39.341810	-6.024879	-163.903700	 12.062220	-30.614890	 6.326894	 9.268081	 73.394530	-13.285550	 2.384659	 28.388700	-0.000001	 58.447890	 2.628469	-17.015470	 8.760447	 16.296360	-6.829464	 12.556220	-12.057350	 13.397580	-91.776190	 78.527400	-180.000000	-35.919670	 32.111400	-82.198630	-39.816580	 0.144174	-1.122358	-43.830280	-24.134650	-23.266340	-4.130354	 21.526190	 0.991307	-5.167926	 0.731697	 3.519349	-1.378229	 35.397820	-2.634230	 13.665000	 4.471468	-4.384939	 7.389279	-21.029910	-7.297788	 89.782070	 78.203920	-180.000000	-42.454260	-5.344759	 93.762410	 18.925960	-6.961396	 136.163600	-6.821234	 28.442570	-0.773191	 5.716295	 19.173350	-3.684826	 5.027458	 0.246833	-9.377971	-2.350882	 35.473990	 5.254307
-0.722608	-0.033901	 1.282647	 166.576900	-9.323899	 1.192472	 2.816679	 3.462705	 178.338800	 0.244426	-30.375300	-0.616587	-45.363200	 74.673890	 35.217970	-2.385833	 28.452760	 0.000004	-40.669700	-6.471219	-164.830600	 12.509060	-30.244280	 6.491382	 8.058231	 73.291790	-11.938090	 2.384659	 28.388700	-0.000001	 60.526510	-0.242086	-18.079100	 11.086940	 16.530380	-9.300965	 12.138660	-12.270750	 14.667350	-91.776180	 78.527430	-180.000000	-42.697630	 30.533370	-80.800820	-38.649430	 0.116294	-1.713796	-42.574570	-24.980630	-21.528430	-4.130354	 21.526190	 0.991307	-5.167926	 0.731697	 3.519349	-1.378229	 35.397820	-2.634230	 12.909050	 3.845558	-4.065678	 6.559144	-21.757850	-9.330251	 89.782070	 78.203850	-180.000000	-37.242780	-6.119637	 95.986750	 19.696640	-9.033669	 132.259700	-11.396380	 28.702420	-3.069876	 5.716295	 19.173350	-3.684826	 5.027458	 0.246833	-9.377971	-2.350882	 35.473990	 5.254307
-0.724982	-0.032139	 1.284259	 166.592500	-8.739755	 1.877863	 1.433362	 2.879925	 178.158200	 0.785902	-30.520680	-0.344181	-46.538810	 74.811200	 36.290030	-2.385833	 28.452760	 0.000004	-41.904300	-6.898627	-165.364800	 12.916830	-30.389890	 6.733693	 7.915415	 73.657550	-11.623730	 2.384659	 28.388700	-0.000001	 62.174770	-2.773620	-18.425420	 13.245800	 16.483790	-11.278740	 11.628170	-12.116890	 15.282600	-91.776150	 78.527420	 180.000000	-50.263970	 28.724920	-78.501490	-37.685680	 0.082496	-2.279113	-41.317020	-25.636910	-19.910760	-4.130354	 21.526190	 0.991307	-5.167926	 0.731697	 3.519349	-1.378229	 35.397820	-2.634230	 12.287650	 3.749425	-4.173698	 6.049418	-22.571460	-9.099546	 89.782070	 78.203870	-180.000000	-32.270100	-4.994229	 97.855080	 19.958970	-11.414330	 127.191100	-15.412760	 29.254670	-3.082188	 5.716295	 19.173350	-3.684826	 5.027458	 0.246833	-9.377971	-2.350882	 35.473990	 5.254307
-0.726068	-0.029490	 1.285015	 166.567200	-8.169759	 2.062868	 0.410576	 2.393227	 178.459900	 1.147714	-30.447860	-0.160105	-46.655260	 75.020970	 36.283110	-2.385833	 28.452760	 0.000004	-42.718280	-7.702667	-165.394600	 13.245460	-30.817630	 6.993644	 7.952294	 73.479310	-11.600370	 2.384659	 28.388700	-0.000001	 63.399150	-4.825215	-17.865640	 14.855720	 16.538460	-12.541200	 11.151090	-12.076220	 15.361400	-91.776150	 78.527400	 180.000000	-54.248980	 27.658050	-75.048510	-37.009580	 0.048426	-2.705947	-40.248720	-26.183850	-18.770290	-4.130354	 21.526190	 0.991307	-5.167926	 0.731697	 3.519349	-1.378229	 35.397820	-2.634230	 11.798930	 3.499753	-4.337557	 5.606343	-22.856560	-8.823765	 89.782040	 78.203850	-180.000000	-28.121300	-3.080406	 98.544260	 19.448480	-12.606530	 123.179300	-17.318950	 29.022440	-2.582751	 5.716295	 19.173350	-3.684826	 5.027458	 0.246833	-9.377971	-2.350882	 35.473990	 5.254307
-0.728241	-0.021568	 1.286042	 166.598100	-7.061411	 3.348774	-1.337165	 0.968588	 178.040500	 1.695037	-31.157120	 0.119752	-46.820240	 75.640560	 36.334640	-2.385833	 28.452760	 0.000004	-44.550730	-8.087853	-166.059900	 13.719510	-30.654070	 7.212618	 10.400480	 73.292470	-14.193280	 2.384659	 28.388700	-0.000001	 65.460310	-8.990588	-17.257760	 17.767180	 16.231400	-14.656790	 10.283230	-12.157730	 15.300160	-91.776180	 78.527380	-180.000000	-46.838810	 28.479780	-73.013890	-35.705600	-0.048124	-3.506521	-38.100820	-27.457640	-16.861690	-4.130354	 21.526190	 0.991307	-5.167926	 0.731697	 3.519349	-1.378229	 35.397820	-2.634230	 10.801390	 2.988389	-3.888357	 4.639684	-23.712350	-10.414520	 89.782110	 78.203850	-180.000000	-21.253280	 4.185729	 95.121620	 18.535870	-14.635810	 117.200000	-21.220100	 29.893360	 2.083751	 5.716295	 19.173350	-3.684826	 5.027458	 0.246833	-9.377971	-2.350882	 35.473990	 5.254307
-0.728508	-0.017240	 1.285962	 166.731400	-6.280986	 3.888772	-2.093936	 0.152897	 177.729400	 1.988073	-31.579470	 0.274664	-46.370000	 76.015000	 35.759130	-2.385833	 28.452760	 0.000004	-45.430220	-8.275304	-166.607800	 13.964680	-30.563650	 7.323987	 11.630290	 73.143380	-15.518550	 2.384659	 28.388700	-0.000001	 66.256300	-11.119080	-16.773780	 19.122420	 16.612820	-15.413460	 9.884276	-12.588660	 15.039170	-91.776190	 78.527380	-180.000000	-40.457230	 29.303560	-76.600610	-35.019420	-0.110718	-3.930139	-37.030940	-28.243620	-16.048850	-4.130354	 21.526190	 0.991307	-5.167926	 0.731697	 3.519349	-1.378229	 35.397820	-2.634230	 10.196230	 2.407309	-3.423561	 4.069713	-23.788910	-11.937630	 89.782110	 78.203890	 180.000000	-16.189950	 8.696595	 94.858180	 17.370190	-15.585690	 112.365200	-22.791720	 31.242570	 3.590609	 5.716295	 19.173350	-3.684826	 5.027458	 0.246833	-9.377971	-2.350882	 35.473990	 5.254307
